<?xml version="1.0" encoding="UTF-8"?>
<svg id="Layer_1" data-name="Layer 1" xmlns="http://www.w3.org/2000/svg" viewBox="0 0 56.52 56.52">
  <defs>
    <style>
      .cls-1 {
        fill: #263171;
      }

      .cls-2 {
        fill: #d4ddf0;
      }
    </style>
  </defs>
  <circle class="cls-1" cx="28.26" cy="28.26" r="28.26"/>
  <path class="cls-2" d="M47.23,32.62l-2.42-11.6c.61-.23,1.04-.81,1.04-1.5,0-.88-.72-1.6-1.6-1.6-.18,0-.35.04-.51.09-4.19-5.42-11.77-6.08-13.56-6.16h0c.13-.64-.4-.95-.93-1.11-.01-1.12-.45-2.02-.99-2.02s-.98.9-.99,2.02c-.53.16-1.06.48-.93,1.1h0c-1.79.09-9.37.76-13.56,6.17-.16-.05-.33-.09-.51-.09-.88,0-1.6.72-1.6,1.6,0,.69.44,1.27,1.04,1.5l-2.42,11.6h-2.72s.69,4.74,5.5,4.74,5.5-4.74,5.5-4.74h-2.72l-2.4-11.51c.8-.09,1.41-.76,1.41-1.58,0-.3-.09-.58-.23-.82,3.88-5.01,11.14-5.67,12.76-5.75l.12,2.32s0,.6.51,1.01v21.63s-1.33,5.67-6.36,5.67h-3.29v.82h-.27c-.91,0-1.65.74-1.65,1.65v.09c0,.91.74,1.65,1.65,1.65h22.32c.91,0,1.65-.74,1.65-1.65v-.09c0-.91-.74-1.65-1.65-1.65h-.27v-.82h-3.29c-5.03,0-6.36-5.67-6.36-5.67v-21.63c.51-.41.52-1.01.52-1.01l.12-2.32c1.62.09,8.88.75,12.76,5.75-.14.24-.23.52-.23.82,0,.82.62,1.49,1.41,1.58l-2.4,11.51h-2.71s.69,4.74,5.5,4.74,5.5-4.74,5.5-4.74h-2.72ZM12.07,32.62h-2.39l2.39-11.45,2.39,11.45h-2.39ZM44.45,32.62h-2.39l2.39-11.45,2.39,11.45h-2.39Z"/>
</svg>